<?xml version="1.0" standalone="no"?><!DOCTYPE svg PUBLIC "-//W3C//DTD SVG 1.1//EN" "http://www.w3.org/Graphics/SVG/1.1/DTD/svg11.dtd"><svg t="1561091490678" class="icon" viewBox="0 0 1024 1024" version="1.1" xmlns="http://www.w3.org/2000/svg" p-id="5581" xmlns:xlink="http://www.w3.org/1999/xlink" width="200" height="200"><defs><style type="text/css"></style></defs><path d="M495.175274 283.029333 175.40994 605.930667c0 0 27.605333 26.069333 98.474667 22.890667 15.146667 32.32 29.482667 70.336 112.277333 109.184-3.328 67.541333 29.184 105.450667 29.184 105.450667l320-322.645333c-3.925333-44.010667-36.864-98.816-89.109333-150.442667C574.791274 299.584 515.036607 285.802667 495.175274 283.029333z" p-id="5582"></path><path d="M957.788607 52.096c-93.909333-76.949333-158.741333-54.4-191.829333-22.549333-11.498667 11.114667-47.808 40.362667-74.368 61.653333 29.909333 1.898667 90.005333 14.826667 155.946667 80.106667 65.6 64.938667 78.122667 120.490667 78.869333 151.488 22.314667-28.842667 57.344-74.005333 62.741333-79.488C1025.223274 206.506667 1051.676607 129.045333 957.788607 52.096z" p-id="5583"></path><path d="M227.036607 667.328c-63.36 0.170667-78.165333-13.994667-78.165333-13.994667L1.77794 1021.994667l367.232-152.554667c0 0-29.141333-57.664-28.394667-88.576C314.92994 772.714667 247.66594 731.797333 227.036607 667.328z" p-id="5584"></path><path d="M650.247274 126.656 613.831274 162.496c0 0 69.610667 11.349333 152.106667 93.12 51.776 51.392 79.68 105.770667 84.693333 143.744l34.837333-34.709333c0 0 12.096-62.890667-77.376-152.32C720.156607 124.416 650.247274 126.656 650.247274 126.656z" p-id="5585"></path><path d="M806.684607 435.029333c0 0 11.584-60.16-74.048-145.792-84.16-84.138667-151.168-81.984-151.168-81.984" p-id="5586"></path></svg>